#!OML:ASF X:\für Bonn\!DataBase\2005_08_11_Bastian_Final\c3d\Bastian.ASF
:FULLY-SPECIFIED
:DEGREES
128
root -1.93487 17.2106 1.86491 166.754 -2.66939 -172.582
lowerback 4.5877 -1.17727 4.28984
upperback 4.73877 -1.97892 3.00295
thorax 2.29626 -1.12088 0.733186
lowerneck -2.21435 -5.1512 -3.24253
upperneck -2.43692 -6.61856 6.63442
head -0.0309579 -3.2393 2.58722
rclavicle 8.78069e-015 -1.53064e-014
rhumerus -38.558 25.1935 -100.337
rradius 37.6415
rwrist -30.1861
rhand -40.0474 4.6183
rfingers 7.12502
rthumb -13.0135 -24.9558
lclavicle 8.78069e-015 -1.53064e-014
lhumerus -87.674 -73.0397 163.285
lradius 28.2525
lwrist 24.5175
lhand -36.9213 13.924
lfingers 7.12502
lthumb -9.99874 43.6665
rfemur 0.209038 0.123675 29.2409
rtibia 39.0013
rfoot -20.9456 -13.0748
rtoes -3.5466
lfemur 2.38833 -2.11428 -13.4139
ltibia 34.8185
lfoot -19.3208 1.93898
ltoes -8.81331
129
root -1.90909 17.2033 1.85354 166.962 -2.21885 -172.827
lowerback 4.41873 -1.08951 4.07678
upperback 4.64022 -1.84295 2.86437
thorax 2.28933 -1.04534 0.702387
lowerneck -2.26125 -5.08419 -3.0867
upperneck -2.40212 -6.52986 6.61008
head -0.0230522 -3.19383 2.55083
rclavicle -1.22097e-014 -4.37326e-015
rhumerus -38.7198 25.5207 -100.855
rradius 37.2976
rwrist -29.9727
rhand -40.0128 4.25257
rfingers 7.12502
rthumb -12.9801 -25.3237
lclavicle -1.22097e-014 -4.37326e-015
lhumerus -93.2598 -71.4754 168.962
lradius 26.6422
lwrist 27.7516
lhand -36.0911 15.46
lfingers 7.12502
lthumb -9.19775 45.2394
rfemur 0.237438 0.525426 29.2097
rtibia 38.8423
rfoot -21.4028 -13.0189
rtoes -3.63212
lfemur 2.26772 -1.94439 -13.5659
ltibia 34.9545
lfoot -19.5287 2.25211
ltoes -9.44947
130
root -1.88392 17.1987 1.84305 167.176 -1.73057 -173.085
lowerback 4.26413 -0.982726 3.83895
upperback 4.54003 -1.68367 2.75281
thorax 2.27453 -0.960461 0.713639
lowerneck -2.32574 -5.01424 -3.03356
upperneck -2.36703 -6.43509 6.63523
head -0.0067726 -3.14429 2.54881
rclavicle 1.54928e-014 8.34896e-015
rhumerus -38.9089 25.8653 -101.332
rradius 36.99
rwrist -29.743
rhand -40.0335 3.88939
rfingers 7.12502
rthumb -13.0001 -25.6856
lclavicle 1.54928e-014 8.34896e-015
lhumerus -97.3006 -69.7019 173.061
lradius 25.4567
lwrist 31.0574
lhand -35.2971 17.5436
lfingers 7.12502
lthumb -8.43148 47.3553
rfemur 0.212585 0.928056 29.1469
rtibia 38.7377
rfoot -21.8769 -12.8869
rtoes -3.62406
lfemur 2.1628 -1.75538 -13.7346
ltibia 35.0686
lfoot -19.7175 2.59825
ltoes -10.162
131
root -1.85741 17.1947 1.8345 167.352 -1.20683 -173.306
lowerback 4.15973 -0.863259 3.58242
upperback 4.4646 -1.5147 2.6983
thorax 2.25947 -0.875471 0.795224
lowerneck -2.42831 -4.95188 -3.05195
upperneck -2.33563 -6.34973 6.64995
head 0.0174493 -3.09878 2.55507
rclavicle 1.41013e-015 5.26779e-015
rhumerus -39.1623 26.3905 -101.786
rradius 36.7844
rwrist -29.6837
rhand -40.1037 3.58252
rfingers 7.12502
rthumb -13.0677 -25.9881
lclavicle 1.41013e-015 5.26779e-015
lhumerus -99.8865 -67.8302 175.719
lradius 24.5915
lwrist 34.468
lhand -34.7461 19.8576
lfingers 7.12502
lthumb -7.89972 49.69
rfemur 0.158082 1.32841 29.1281
rtibia 38.6843
rfoot -22.2481 -12.7785
rtoes -3.55185
lfemur 2.09639 -1.4719 -13.8219
ltibia 35.1497
lfoot -19.8491 2.88873
ltoes -11.0761
